<svg width="14" height="14" viewBox="0 0 14 14" fill="none" xmlns="http://www.w3.org/2000/svg">
<g id="USWDS Components">
<g id="Icons">
<g id="Fill">
<path id="Vector" fill-rule="evenodd" clip-rule="evenodd" d="M7.00004 0.333374C3.32004 0.333374 0.333374 3.32004 0.333374 7.00004C0.333374 10.68 3.32004 13.6667 7.00004 13.6667C10.68 13.6667 13.6667 10.68 13.6667 7.00004C13.6667 3.32004 10.68 0.333374 7.00004 0.333374ZM11.9734 5.08004L10.12 5.84671C9.78004 4.94004 9.06671 4.22004 8.15337 3.88671L8.92004 2.03337C10.32 2.56671 11.4334 3.68004 11.9734 5.08004ZM7.00004 9.00004C5.89337 9.00004 5.00004 8.10671 5.00004 7.00004C5.00004 5.89337 5.89337 5.00004 7.00004 5.00004C8.10671 5.00004 9.00004 5.89337 9.00004 7.00004C9.00004 8.10671 8.10671 9.00004 7.00004 9.00004ZM5.08671 2.02671L5.86671 3.88004C4.94671 4.21337 4.22004 4.94004 3.88004 5.86004L2.02671 5.08671C2.56671 3.68004 3.68004 2.56671 5.08671 2.02671ZM2.02671 8.91337L3.88004 8.14671C4.22004 9.06671 4.94004 9.78671 5.86004 10.12L5.08004 11.9734C3.68004 11.4334 2.56671 10.32 2.02671 8.91337ZM8.92004 11.9734L8.15337 10.12C9.06671 9.78004 9.78671 9.06004 10.12 8.14004L11.9734 8.92004C11.4334 10.32 10.32 11.4334 8.92004 11.9734Z" fill="#1871BD"/>
</g>
</g>
</g>
</svg>
